<?xml version="1.0" encoding="UTF-8"?>
<svg width="15px" height="20px" viewBox="0 0 28 40" version="1.1" xmlns="http://www.w3.org/2000/svg" xmlns:xlink="http://www.w3.org/1999/xlink">
    <!-- Generator: Sketch 40 (33762) - http://www.bohemiancoding.com/sketch -->
    <title>Fill 222</title>
    <desc>Created with Sketch.</desc>
    <defs></defs>
    <g id="Page-1" stroke="none" stroke-width="1" fill="none" fill-rule="evenodd">
        <g id="Print-Status-Regular-Map" transform="translate(-999.000000, -261.000000)" fill="#4F0982">
            <path d="M1013,261 C1005.26,261 999,267.26 999,275 C999,285.5 1013,301 1013,301 C1013,301 1027,285.5 1027,275 C1027,267.26 1020.74,261 1013,261 L1013,261 Z M1013,280 C1010.24,280 1008,277.76 1008,275 C1008,272.24 1010.24,270 1013,270 C1015.76,270 1018,272.24 1018,275 C1018,277.76 1015.76,280 1013,280 L1013,280 Z" id="Fill-222"></path>
        </g>
    </g>
</svg>