<?xml version="1.0" encoding="UTF-8"?>
<svg width="30px" height="30px" viewBox="0 0 30 30" version="1.1" xmlns="http://www.w3.org/2000/svg" xmlns:xlink="http://www.w3.org/1999/xlink">
    <!-- Generator: Sketch 40 (33762) - http://www.bohemiancoding.com/sketch -->
    <title>Search 2</title>
    <desc>Created with Sketch.</desc>
    <defs></defs>
    <g id="Page-1" stroke="none" stroke-width="1" fill="none" fill-rule="evenodd">
        <g id="Print-Status-Regular-Map" transform="translate(-30.000000, -34.000000)" fill="#FFFFFF">
            <g id="SEARCH" transform="translate(30.000000, 34.000000)">
                <path d="M30,28.3162112 L21.1031859,19.4117647 C22.7722301,17.3626592 23.7755587,14.7495141 23.7755587,11.8995676 C23.7755587,5.32743644 18.4533999,0 11.8877794,0 C5.3233476,0 0,5.32743644 0,11.8995676 C0,18.4705089 5.3233476,23.7979453 11.8877794,23.7979453 C14.7491679,23.7979453 17.3739895,22.7852921 19.4258203,21.0991234 L28.3178792,30 L30,28.3162112 L30,28.3162112 Z M11.8877794,21.4168419 C6.63575844,21.4168419 2.37755587,17.1544167 2.37755587,11.8971877 C2.37755587,6.63876879 6.63456966,2.37634366 11.8877794,2.37634366 C17.1398003,2.37634366 21.3980029,6.63876879 21.3980029,11.8971877 C21.3991916,17.1556067 17.1409891,21.4168419 11.8877794,21.4168419 L11.8877794,21.4168419 Z" id="Search-2"></path>
            </g>
        </g>
    </g>
</svg>